<svg width="31" height="31" viewBox="0 0 31 31" fill="none" xmlns="http://www.w3.org/2000/svg">
<path fill-rule="evenodd" clip-rule="evenodd" d="M15.5 29.4499C23.2043 29.4499 29.45 23.2042 29.45 15.5C29.45 7.79571 23.2043 1.55 15.5 1.55C7.79572 1.55 1.55 7.79571 1.55 15.5C1.55 23.2042 7.79572 29.4499 15.5 29.4499ZM15.5 30.9999C24.0606 30.9999 31 24.0606 31 15.5C31 6.93934 24.0606 0 15.5 0C6.93935 0 0 6.93934 0 15.5C0 24.0606 6.93935 30.9999 15.5 30.9999Z" fill="black"/>
<path d="M6.20001 24.5132C6.20001 23.7126 6.79831 23.0361 7.59501 22.9477C13.5741 22.2859 17.453 22.3455 23.419 22.9624C23.7169 22.9937 23.9992 23.1111 24.2316 23.3002C24.4639 23.4893 24.6361 23.742 24.7271 24.0274C24.8182 24.3128 24.8242 24.6185 24.7444 24.9072C24.6646 25.1959 24.5024 25.4552 24.2777 25.6532C17.2368 31.7904 13.213 31.706 6.69601 25.6594C6.37826 25.3649 6.20001 24.9464 6.20001 24.514V24.5132Z" fill="black"/>
<path fill-rule="evenodd" clip-rule="evenodd" d="M23.3391 23.7328C17.4204 23.1205 13.5974 23.0632 7.67947 23.718C7.48467 23.7407 7.30508 23.8345 7.1751 23.9814C7.04511 24.1282 6.97387 24.3179 6.97499 24.514C6.97499 24.7356 7.06722 24.9456 7.22299 25.0913C10.4532 28.0875 12.9006 29.4414 15.2931 29.4499C17.694 29.4585 20.2732 28.1154 23.7685 25.0696C23.8795 24.9708 23.9594 24.8419 23.9986 24.6984C24.0377 24.555 24.0343 24.4033 23.9888 24.2618C23.9433 24.1203 23.8577 23.995 23.7424 23.9012C23.627 23.8075 23.4869 23.7492 23.3391 23.7335V23.7328ZM7.50974 22.1774C13.5516 21.5085 17.4871 21.569 23.4995 22.1913C23.9477 22.2381 24.3725 22.4145 24.722 22.699C25.0714 22.9835 25.3304 23.3637 25.467 23.7931C25.6037 24.2225 25.6123 24.6824 25.4916 25.1166C25.3709 25.5508 25.1263 25.9403 24.7876 26.2376C21.242 29.3283 18.2892 31.0116 15.2884 30.9999C12.2791 30.9891 9.45654 29.2771 6.16977 26.2275C5.93444 26.0083 5.74684 25.7429 5.6187 25.448C5.49055 25.153 5.42461 24.8348 5.42499 24.5132C5.42386 23.9354 5.63595 23.3775 6.02063 22.9463C6.40531 22.5152 6.93553 22.2411 7.50974 22.1766V22.1774Z" fill="black"/>
<path d="M21.7 12.4C21.7 14.0443 21.0468 15.6213 19.884 16.784C18.7213 17.9468 17.1443 18.6 15.5 18.6C13.8556 18.6 12.2787 17.9468 11.1159 16.784C9.9532 15.6213 9.29999 14.0443 9.29999 12.4C9.29999 10.7556 9.9532 9.17865 11.1159 8.01593C12.2787 6.85321 13.8556 6.2 15.5 6.2C17.1443 6.2 18.7213 6.85321 19.884 8.01593C21.0468 9.17865 21.7 10.7556 21.7 12.4Z" fill="black"/>
<path fill-rule="evenodd" clip-rule="evenodd" d="M15.5 17.05C16.7332 17.05 17.916 16.5601 18.788 15.688C19.6601 14.816 20.15 13.6332 20.15 12.4C20.15 11.1667 19.6601 9.98399 18.788 9.11194C17.916 8.2399 16.7332 7.74999 15.5 7.74999C14.2667 7.74999 13.084 8.2399 12.2119 9.11194C11.3399 9.98399 10.85 11.1667 10.85 12.4C10.85 13.6332 11.3399 14.816 12.2119 15.688C13.084 16.5601 14.2667 17.05 15.5 17.05ZM15.5 18.6C17.1443 18.6 18.7213 17.9468 19.884 16.784C21.0468 15.6213 21.7 14.0443 21.7 12.4C21.7 10.7556 21.0468 9.17865 19.884 8.01593C18.7213 6.85321 17.1443 6.2 15.5 6.2C13.8556 6.2 12.2787 6.85321 11.1159 8.01593C9.9532 9.17865 9.29999 10.7556 9.29999 12.4C9.29999 14.0443 9.9532 15.6213 11.1159 16.784C12.2787 17.9468 13.8556 18.6 15.5 18.6Z" fill="black"/>
</svg>
