<svg width="52" height="50" viewBox="0 0 52 50" fill="none" xmlns="http://www.w3.org/2000/svg">
<ellipse cx="26" cy="25" rx="26" ry="25" fill="#C4C4C4"/>
<path d="M18 18H22.01V16H16V22H18V18ZM18 30H16V36H22.01V34H18V30ZM34 34H30V36H36V30H34V34ZM30 18H34V22H36V16H30V18Z" fill="black"/>
<path d="M19 25H25V19H19V25ZM21 21H23V23H21V21ZM19 33H25V27H19V33ZM21 29H23V31H21V29ZM33 19H27V25H33V19ZM31 23H29V21H31V23ZM27.01 27H29.01V29H27.01V27ZM29.01 29H31.01V31H29.01V29ZM31.01 31H33.01V33H31.01V31ZM31.01 27H33.01V29H31.01V27Z" fill="black"/>
</svg>
